<svg width="16" height="17" viewBox="0 0 16 17" fill="none" xmlns="http://www.w3.org/2000/svg">
<path d="M9.87454 15.2496V11.4995C9.87454 11.3338 9.80869 11.1748 9.69148 11.0576C9.57427 10.9404 9.4153 10.8745 9.24954 10.8745H6.74954C6.58378 10.8745 6.42481 10.9404 6.3076 11.0576C6.19039 11.1748 6.12454 11.3338 6.12454 11.4995V15.2496C6.12454 15.4154 6.0587 15.5743 5.94151 15.6915C5.82432 15.8087 5.66537 15.8746 5.49962 15.8746L1.75008 15.8751C1.668 15.8751 1.58671 15.859 1.51088 15.8276C1.43504 15.7962 1.36613 15.7501 1.30809 15.6921C1.25004 15.634 1.204 15.5651 1.17258 15.4893C1.14117 15.4135 1.125 15.3322 1.125 15.2501V8.02664C1.125 7.93957 1.14319 7.85345 1.17842 7.77382C1.21364 7.69419 1.26511 7.62279 1.32954 7.56422L7.57911 1.88181C7.69415 1.77721 7.84406 1.71924 7.99955 1.71924C8.15504 1.71923 8.30495 1.77719 8.42 1.88178L14.6704 7.56421C14.7349 7.62279 14.7863 7.69419 14.8216 7.77383C14.8568 7.85347 14.875 7.93959 14.875 8.02667V15.2501C14.875 15.3322 14.8588 15.4135 14.8274 15.4893C14.796 15.5651 14.75 15.634 14.6919 15.6921C14.6339 15.7501 14.565 15.7962 14.4891 15.8276C14.4133 15.859 14.332 15.8751 14.2499 15.8751L10.4995 15.8746C10.3337 15.8746 10.1748 15.8087 10.0576 15.6915C9.94038 15.5743 9.87454 15.4154 9.87454 15.2496V15.2496Z" stroke="#828998" stroke-width="1.5" stroke-linecap="round" stroke-linejoin="round"/>
</svg>
