<svg xmlns="http://www.w3.org/2000/svg" xmlns:xlink="http://www.w3.org/1999/xlink"><defs><symbol viewBox="0 0 32 32" fill="none" id="binance">
<path d="M7.77749 16L4.39301 19.3835L1 16L4.38448 12.6165L7.77749 16ZM16.0043 7.77557L21.8099 13.5795L25.1944 10.196L16.0043 1L6.80563 10.196L10.1901 13.5795L16.0043 7.77557ZM27.6155 12.6165L24.231 16L27.6155 19.3835L31 16L27.6155 12.6165ZM16.0043 24.2244L10.1986 18.4205L6.81415 21.804L16.0043 31L25.1944 21.804L21.8099 18.4205L16.0043 24.2244ZM16.0043 19.3835L19.3887 16L16.0043 12.6165L12.6113 16L16.0043 19.3835Z" fill="#828998" />
</symbol><symbol viewBox="0 0 20 20" fill="none" id="button-spinner">
<path d="M10 2.5V5" stroke="white" stroke-width="2" stroke-linecap="round" stroke-linejoin="round" />
<path d="M15.3034 4.69629L13.5356 6.46406" stroke="white" stroke-width="2" stroke-linecap="round" stroke-linejoin="round" />
<path d="M17.5 10H15" stroke="white" stroke-width="2" stroke-linecap="round" stroke-linejoin="round" />
<path d="M15.3034 15.3029L13.5356 13.5352" stroke="white" stroke-width="2" stroke-linecap="round" stroke-linejoin="round" />
<path d="M10 17.5V15" stroke="white" stroke-width="2" stroke-linecap="round" stroke-linejoin="round" />
<path d="M4.69678 15.3029L6.46454 13.5352" stroke="white" stroke-width="2" stroke-linecap="round" stroke-linejoin="round" />
<path d="M2.5 10H5" stroke="white" stroke-width="2" stroke-linecap="round" stroke-linejoin="round" />
<path d="M4.69678 4.69629L6.46454 6.46406" stroke="white" stroke-width="2" stroke-linecap="round" stroke-linejoin="round" />
</symbol><symbol viewBox="0 0 21 20" fill="none" id="chat">
<path d="M6.54304 15.7716L4.02717 17.8865C3.93607 17.9631 3.82499 18.0121 3.707 18.0277C3.58901 18.0433 3.46901 18.0249 3.36112 17.9747C3.25323 17.9244 3.16193 17.8444 3.09796 17.744C3.03398 17.6437 3 17.5271 3 17.4081V5C3 4.83424 3.06585 4.67527 3.18306 4.55806C3.30027 4.44085 3.45924 4.375 3.625 4.375H17.375C17.5408 4.375 17.6997 4.44085 17.8169 4.55806C17.9342 4.67527 18 4.83424 18 5V15C18 15.1658 17.9342 15.3247 17.8169 15.4419C17.6997 15.5592 17.5408 15.625 17.375 15.625H6.94522C6.79808 15.625 6.65567 15.6769 6.54304 15.7716Z" stroke="currentColor" stroke-width="1.5" stroke-linecap="round" stroke-linejoin="round" />
<path d="M10.5 10.9375C11.0178 10.9375 11.4375 10.5178 11.4375 10C11.4375 9.48223 11.0178 9.0625 10.5 9.0625C9.98223 9.0625 9.5625 9.48223 9.5625 10C9.5625 10.5178 9.98223 10.9375 10.5 10.9375Z" fill="currentColor" />
<path d="M6.75 10.9375C7.26777 10.9375 7.6875 10.5178 7.6875 10C7.6875 9.48223 7.26777 9.0625 6.75 9.0625C6.23223 9.0625 5.8125 9.48223 5.8125 10C5.8125 10.5178 6.23223 10.9375 6.75 10.9375Z" fill="currentColor" />
<path d="M14.25 10.9375C14.7678 10.9375 15.1875 10.5178 15.1875 10C15.1875 9.48223 14.7678 9.0625 14.25 9.0625C13.7322 9.0625 13.3125 9.48223 13.3125 10C13.3125 10.5178 13.7322 10.9375 14.25 10.9375Z" fill="currentColor" />
</symbol><symbol viewBox="0 0 20 20" fill="none" id="check-circle">
<path d="M13.4375 8.125L8.85414 12.5L6.5625 10.3125" stroke="#97DD01" stroke-width="1.5" stroke-linecap="round" stroke-linejoin="round" />
<path d="M10 17.5C14.1421 17.5 17.5 14.1421 17.5 10C17.5 5.85786 14.1421 2.5 10 2.5C5.85786 2.5 2.5 5.85786 2.5 10C2.5 14.1421 5.85786 17.5 10 17.5Z" stroke="#97DD01" stroke-width="1.5" stroke-linecap="round" stroke-linejoin="round" />
</symbol><symbol viewBox="0 0 24 24" fill="none" id="chevron">
<path fill-rule="evenodd" clip-rule="evenodd" d="M12.0002 15.5002C11.7442 15.5002 11.4883 15.4023 11.2933 15.2073L7.29325 11.2072C6.90225 10.8162 6.90225 10.1842 7.29325 9.79325C7.68425 9.40225 8.31625 9.40225 8.70725 9.79325L12.0122 13.0982L15.3053 9.91825C15.7043 9.53525 16.3352 9.54625 16.7192 9.94325C17.1032 10.3403 17.0922 10.9742 16.6952 11.3572L12.6953 15.2193C12.5002 15.4073 12.2502 15.5002 12.0002 15.5002Z" fill="currentColor" />

</symbol><mask id="chevron_mask0_156_10598" style="mask-type:alpha" maskUnits="userSpaceOnUse" x="7" y="9" width="10" height="7">
<path fill-rule="evenodd" clip-rule="evenodd" d="M12.0002 15.5002C11.7442 15.5002 11.4883 15.4023 11.2933 15.2073L7.29325 11.2072C6.90225 10.8162 6.90225 10.1842 7.29325 9.79325C7.68425 9.40225 8.31625 9.40225 8.70725 9.79325L12.0122 13.0982L15.3053 9.91825C15.7043 9.53525 16.3352 9.54625 16.7192 9.94325C17.1032 10.3403 17.0922 10.9742 16.6952 11.3572L12.6953 15.2193C12.5002 15.4073 12.2502 15.5002 12.0002 15.5002Z" fill="none" />
</mask><symbol viewBox="0 0 20 20" fill="none" id="clock">
<path d="M10 17.5C14.1421 17.5 17.5 14.1421 17.5 10C17.5 5.85786 14.1421 2.5 10 2.5C5.85786 2.5 2.5 5.85786 2.5 10C2.5 14.1421 5.85786 17.5 10 17.5Z" stroke="currentColor" stroke-width="1.5" stroke-miterlimit="10" />
<path d="M10 5.625V10H14.375" stroke="currentColor" stroke-width="1.5" stroke-linecap="round" stroke-linejoin="round" />
</symbol><symbol viewBox="0 0 32 32" fill="none" id="credit-card">
<path d="M28 7H4C3.44772 7 3 7.44772 3 8V24C3 24.5523 3.44772 25 4 25H28C28.5523 25 29 24.5523 29 24V8C29 7.44772 28.5523 7 28 7Z" stroke="#828998" stroke-width="1.5" stroke-linecap="round" stroke-linejoin="round" />
<path d="M20.999 21H24.999" stroke="#828998" stroke-width="1.5" stroke-linecap="round" stroke-linejoin="round" />
<path d="M14.999 21H16.999" stroke="#828998" stroke-width="1.5" stroke-linecap="round" stroke-linejoin="round" />
<path d="M2.99902 12.1064H28.999" stroke="#828998" stroke-width="1.5" stroke-linecap="round" stroke-linejoin="round" />
</symbol><symbol viewBox="0 0 24 24" fill="none" id="double-right-chevron">
<path d="M5.25 4.5L12.75 12L5.25 19.5" stroke="currentColor" stroke-width="1.5" stroke-linecap="round" stroke-linejoin="round" />
<path d="M12.75 4.5L20.25 12L12.75 19.5" stroke="currentColor" stroke-width="1.5" stroke-linecap="round" stroke-linejoin="round" />
</symbol><symbol viewBox="0 0 20 20" fill="none" id="envelope">
<path d="M17.5 4.375L10 11.25L2.5 4.375" stroke="currentColor" stroke-width="1.5" stroke-linecap="round" stroke-linejoin="round" />
<path d="M2.5 4.375H17.5V15C17.5 15.1658 17.4342 15.3247 17.3169 15.4419C17.1997 15.5592 17.0408 15.625 16.875 15.625H3.125C2.95924 15.625 2.80027 15.5592 2.68306 15.4419C2.56585 15.3247 2.5 15.1658 2.5 15V4.375Z" stroke="currentColor" stroke-width="1.5" stroke-linecap="round" stroke-linejoin="round" />
<path d="M8.63651 10L2.69287 15.4484" stroke="currentColor" stroke-width="1.5" stroke-linecap="round" stroke-linejoin="round" />
<path d="M17.3075 15.4484L11.3638 10" stroke="currentColor" stroke-width="1.5" stroke-linecap="round" stroke-linejoin="round" />
</symbol><symbol viewBox="0 0 20 20" fill="none" id="export">
<path d="M6.71875 4.53039L10 1.25L13.2812 4.53039" stroke="white" stroke-width="1.5" stroke-linecap="round" stroke-linejoin="round" />
<path d="M10 10V1.25232" stroke="white" stroke-width="1.5" stroke-linecap="round" stroke-linejoin="round" />
<path d="M13.75 7.5H15.625C15.7908 7.5 15.9497 7.56585 16.0669 7.68306C16.1842 7.80027 16.25 7.95924 16.25 8.125V16.25C16.25 16.4158 16.1842 16.5747 16.0669 16.6919C15.9497 16.8092 15.7908 16.875 15.625 16.875H4.375C4.20924 16.875 4.05027 16.8092 3.93306 16.6919C3.81585 16.5747 3.75 16.4158 3.75 16.25V8.125C3.75 7.95924 3.81585 7.80027 3.93306 7.68306C4.05027 7.56585 4.20924 7.5 4.375 7.5H6.25" stroke="white" stroke-width="1.5" stroke-linecap="round" stroke-linejoin="round" />
</symbol><symbol viewBox="0 0 45 45" fill="none" id="handshake">
<path d="M42.3136 21.4074L37.9687 23.5799L32.3438 12.8076L36.7329 10.6131C37.0626 10.4482 37.444 10.4194 37.7947 10.5329C38.1455 10.6464 38.4377 10.8931 38.6083 11.2199L42.9313 19.4987C43.0177 19.6643 43.0703 19.8454 43.086 20.0314C43.1017 20.2175 43.0802 20.4049 43.0227 20.5826C42.9652 20.7603 42.8729 20.9247 42.7512 21.0663C42.6294 21.2079 42.4807 21.3239 42.3136 21.4074V21.4074Z" stroke="white" stroke-width="2" stroke-linecap="round" stroke-linejoin="round" />
<path d="M7.03144 23.3916L2.68654 21.2192C2.5195 21.1357 2.37077 21.0197 2.24903 20.8781C2.12729 20.7365 2.03498 20.572 1.97749 20.3943C1.91999 20.2167 1.89846 20.0293 1.91415 19.8432C1.92985 19.6571 1.98245 19.476 2.06889 19.3105L6.39187 11.0317C6.56252 10.7049 6.85468 10.4582 7.20545 10.3447C7.55623 10.2312 7.93754 10.26 8.2673 10.4248L12.6564 12.6194L7.03144 23.3916Z" stroke="white" stroke-width="2" stroke-linecap="round" stroke-linejoin="round" />
<path d="M37.9688 23.58L35.1562 26.8703L28.688 33.3385C28.5163 33.5102 28.303 33.6346 28.069 33.6994C27.835 33.7642 27.5882 33.7673 27.3526 33.7084L17.1648 31.1615C16.9737 31.1137 16.7948 31.0263 16.6397 30.905L7.03125 23.3916" stroke="white" stroke-width="2" stroke-linecap="round" stroke-linejoin="round" />
<path d="M35.1565 26.8701L27.4221 21.2451L25.1721 22.9326C24.1984 23.6629 23.0142 24.0576 21.7971 24.0576C20.58 24.0576 19.3958 23.6629 18.4221 22.9326L17.4692 22.218C17.3081 22.0971 17.1747 21.943 17.0783 21.7661C16.9819 21.5892 16.9246 21.3936 16.9103 21.1927C16.896 20.9917 16.9251 20.79 16.9955 20.6012C17.066 20.4125 17.1762 20.2411 17.3186 20.0986L24.1977 13.2195C24.3283 13.0889 24.4833 12.9853 24.6539 12.9147C24.8246 12.844 25.0074 12.8076 25.1921 12.8076H32.344" stroke="white" stroke-width="2" stroke-linecap="round" stroke-linejoin="round" />
<path d="M12.7573 12.6193L21.7784 9.98931C22.1007 9.89536 22.4459 9.91978 22.7517 10.0582L28.8282 12.8077" stroke="white" stroke-width="2" stroke-linecap="round" stroke-linejoin="round" />
<path d="M19.6875 37.4171L14.3896 36.0926C14.1746 36.0388 13.9753 35.935 13.8081 35.7897L9.84375 32.3438" stroke="white" stroke-width="2" stroke-linecap="round" stroke-linejoin="round" />
</symbol><symbol viewBox="0 0 46 45" fill="none" id="headset">
<path d="M39.9644 22.5H34.3394C33.5935 22.5 32.8781 22.7963 32.3507 23.3238C31.8232 23.8512 31.5269 24.5666 31.5269 25.3125V32.3438C31.5269 33.0897 31.8232 33.8051 32.3507 34.3325C32.8781 34.8599 33.5935 35.1563 34.3394 35.1563H37.1519C37.8978 35.1563 38.6132 34.8599 39.1406 34.3325C39.6681 33.8051 39.9644 33.0897 39.9644 32.3438V22.5ZM39.9644 22.5C39.9644 20.2732 39.5237 18.0684 38.6676 16.0127C37.8115 13.957 36.5571 12.0911 34.9765 10.5224C33.3959 8.95381 31.5205 7.71352 29.4584 6.87307C27.3963 6.03261 25.1882 5.6086 22.9614 5.62549C20.7347 5.6086 18.5266 6.03261 16.4645 6.87307C14.4023 7.71352 12.527 8.95381 10.9464 10.5224C9.36583 12.0911 8.11137 13.957 7.2553 16.0127C6.39923 18.0684 5.9585 20.2732 5.9585 22.5V32.3438C5.9585 33.0897 6.25481 33.8051 6.78226 34.3325C7.3097 34.8599 8.02507 35.1563 8.771 35.1563H11.5835C12.3294 35.1563 13.0448 34.8599 13.5722 34.3325C14.0997 33.8051 14.396 33.0897 14.396 32.3438V25.3125C14.396 24.5666 14.0997 23.8512 13.5722 23.3238C13.0448 22.7963 12.3294 22.5 11.5835 22.5H5.9585" stroke="white" stroke-width="2" stroke-linecap="round" stroke-linejoin="round" />
<path d="M39.9644 32.3438V36.5625C39.9644 38.0543 39.3718 39.4851 38.3169 40.54C37.262 41.5949 35.8312 42.1875 34.3394 42.1875H24.2397" stroke="white" stroke-width="2" stroke-linecap="round" stroke-linejoin="round" />
</symbol><symbol viewBox="0 0 16 17" fill="none" id="home">
<path d="M9.87454 15.2496V11.4995C9.87454 11.3338 9.80869 11.1748 9.69148 11.0576C9.57427 10.9404 9.4153 10.8745 9.24954 10.8745H6.74954C6.58378 10.8745 6.42481 10.9404 6.3076 11.0576C6.19039 11.1748 6.12454 11.3338 6.12454 11.4995V15.2496C6.12454 15.4154 6.0587 15.5743 5.94151 15.6915C5.82432 15.8087 5.66537 15.8746 5.49962 15.8746L1.75008 15.8751C1.668 15.8751 1.58671 15.859 1.51088 15.8276C1.43504 15.7962 1.36613 15.7501 1.30809 15.6921C1.25004 15.634 1.204 15.5651 1.17258 15.4893C1.14117 15.4135 1.125 15.3322 1.125 15.2501V8.02664C1.125 7.93957 1.14319 7.85345 1.17842 7.77382C1.21364 7.69419 1.26511 7.62279 1.32954 7.56422L7.57911 1.88181C7.69415 1.77721 7.84406 1.71924 7.99955 1.71924C8.15504 1.71923 8.30495 1.77719 8.42 1.88178L14.6704 7.56421C14.7349 7.62279 14.7863 7.69419 14.8216 7.77383C14.8568 7.85347 14.875 7.93959 14.875 8.02667V15.2501C14.875 15.3322 14.8588 15.4135 14.8274 15.4893C14.796 15.5651 14.75 15.634 14.6919 15.6921C14.6339 15.7501 14.565 15.7962 14.4891 15.8276C14.4133 15.859 14.332 15.8751 14.2499 15.8751L10.4995 15.8746C10.3337 15.8746 10.1748 15.8087 10.0576 15.6915C9.94038 15.5743 9.87454 15.4154 9.87454 15.2496V15.2496Z" stroke="#828998" stroke-width="1.5" stroke-linecap="round" stroke-linejoin="round" />
</symbol><symbol viewBox="0 0 16 16" fill="none" id="lightning">
<path d="M6 14.9995L7 9.99951L3 8.49951L10 0.999512L9 5.99951L13 7.49951L6 14.9995Z" stroke="currentColor" stroke-width="1.5" stroke-linecap="round" stroke-linejoin="round" />
</symbol><symbol viewBox="0 0 21 20" fill="none" id="minus-circle">
<path d="M10.8751 17.5C15.0691 17.5 18.469 14.1421 18.469 10C18.469 5.85786 15.0691 2.5 10.8751 2.5C6.68114 2.5 3.28125 5.85786 3.28125 10C3.28125 14.1421 6.68114 17.5 10.8751 17.5Z" stroke="white" stroke-width="1.5" stroke-miterlimit="10" />
<path d="M7.71094 10H14.0392" stroke="white" stroke-width="1.5" stroke-linecap="round" stroke-linejoin="round" />
</symbol><symbol viewBox="0 0 24 24" fill="none" id="paper-clip">
<path fill-rule="evenodd" clip-rule="evenodd" d="M9.29305 21V21C7.63705 21 6.06305 20.334 4.86105 19.125C2.47305 16.722 2.37505 12.912 4.64205 10.631L12.0281 3.201C12.7971 2.427 13.8351 2 14.9501 2C16.1431 2 17.2771 2.479 18.1421 3.349C19.8631 5.08 19.9291 7.831 18.2881 9.481L10.8931 16.91C10.4141 17.393 9.76905 17.658 9.07705 17.658V17.658C8.34605 17.658 7.65305 17.366 7.12705 16.837C6.07405 15.776 6.04105 14.085 7.05405 13.065L13.8791 6.21C14.2691 5.818 14.9011 5.816 15.2931 6.206C15.6841 6.596 15.6861 7.229 15.2961 7.62L8.47205 14.476C8.23205 14.718 8.26505 15.145 8.54605 15.427C8.69205 15.574 8.88605 15.658 9.07705 15.658V15.658C9.18705 15.658 9.34505 15.631 9.47505 15.5L16.8701 8.071C17.7371 7.198 17.6721 5.713 16.7241 4.759C15.8171 3.847 14.2781 3.775 13.4461 4.611L6.06005 12.041C4.56605 13.544 4.66405 16.09 6.28005 17.715C7.10305 18.544 8.17305 19 9.29305 19C10.2941 19 11.2221 18.622 11.9041 17.936L19.2911 10.506C19.6801 10.115 20.3131 10.112 20.7051 10.502C21.0961 10.892 21.0981 11.524 20.7091 11.916L13.3221 19.346C12.2621 20.412 10.8311 21 9.29305 21" fill="black" />

</symbol><mask id="paper-clip_mask0_269_6855" style="mask-type:alpha" maskUnits="userSpaceOnUse" x="3" y="2" width="18" height="19">
<path fill-rule="evenodd" clip-rule="evenodd" d="M9.29305 21V21C7.63705 21 6.06305 20.334 4.86105 19.125C2.47305 16.722 2.37505 12.912 4.64205 10.631L12.0281 3.201C12.7971 2.427 13.8351 2 14.9501 2C16.1431 2 17.2771 2.479 18.1421 3.349C19.8631 5.08 19.9291 7.831 18.2881 9.481L10.8931 16.91C10.4141 17.393 9.76905 17.658 9.07705 17.658V17.658C8.34605 17.658 7.65305 17.366 7.12705 16.837C6.07405 15.776 6.04105 14.085 7.05405 13.065L13.8791 6.21C14.2691 5.818 14.9011 5.816 15.2931 6.206C15.6841 6.596 15.6861 7.229 15.2961 7.62L8.47205 14.476C8.23205 14.718 8.26505 15.145 8.54605 15.427C8.69205 15.574 8.88605 15.658 9.07705 15.658V15.658C9.18705 15.658 9.34505 15.631 9.47505 15.5L16.8701 8.071C17.7371 7.198 17.6721 5.713 16.7241 4.759C15.8171 3.847 14.2781 3.775 13.4461 4.611L6.06005 12.041C4.56605 13.544 4.66405 16.09 6.28005 17.715C7.10305 18.544 8.17305 19 9.29305 19C10.2941 19 11.2221 18.622 11.9041 17.936L19.2911 10.506C19.6801 10.115 20.3131 10.112 20.7051 10.502C21.0961 10.892 21.0981 11.524 20.7091 11.916L13.3221 19.346C12.2621 20.412 10.8311 21 9.29305 21" fill="white" />
</mask><symbol viewBox="0 0 20 20" fill="none" id="plus-circle">
<path d="M10 17.5C14.1421 17.5 17.5 14.1421 17.5 10C17.5 5.85786 14.1421 2.5 10 2.5C5.85786 2.5 2.5 5.85786 2.5 10C2.5 14.1421 5.85786 17.5 10 17.5Z" stroke="currentColor" stroke-width="1.5" stroke-miterlimit="10" />
<path d="M6.875 10H13.125" stroke="currentColor" stroke-width="1.5" stroke-linecap="round" stroke-linejoin="round" />
<path d="M10 6.875V13.125" stroke="currentColor" stroke-width="1.5" stroke-linecap="round" stroke-linejoin="round" />
</symbol><symbol viewBox="0 0 20 20" fill="none" id="question">
<path d="M10 17.5C14.1421 17.5 17.5 14.1421 17.5 10C17.5 5.85786 14.1421 2.5 10 2.5C5.85786 2.5 2.5 5.85786 2.5 10C2.5 14.1421 5.85786 17.5 10 17.5Z" stroke="currentColor" stroke-width="1.5" stroke-linecap="round" stroke-linejoin="round" />
<path d="M10 15C10.5178 15 10.9375 14.5803 10.9375 14.0625C10.9375 13.5447 10.5178 13.125 10 13.125C9.48223 13.125 9.0625 13.5447 9.0625 14.0625C9.0625 14.5803 9.48223 15 10 15Z" fill="currentColor" />
<path d="M10 11.2504V10.6254C10.4326 10.6254 10.8556 10.4971 11.2153 10.2567C11.575 10.0163 11.8554 9.6747 12.021 9.27499C12.1866 8.87527 12.2299 8.43544 12.1455 8.01111C12.0611 7.58677 11.8527 7.197 11.5468 6.89107C11.2409 6.58514 10.8511 6.3768 10.4268 6.2924C10.0024 6.20799 9.56259 6.25131 9.16288 6.41688C8.76317 6.58245 8.42153 6.86282 8.18116 7.22256C7.9408 7.58229 7.8125 8.00522 7.8125 8.43787" stroke="currentColor" stroke-width="1.5" stroke-linecap="round" stroke-linejoin="round" />
</symbol><symbol viewBox="0 0 32 32" fill="none" id="sbp">
<path d="M3 7.7124L6.73449 14.3876V18.4592L3.00437 25.1212L3 7.7124Z" fill="#5B57A2" />
<path d="M17.3389 11.9581L20.8382 9.81332L27.9998 9.80664L17.3389 16.3376V11.9581Z" fill="#D90751" />
<path d="M17.3191 7.6731L17.3389 16.5108L13.5957 14.2108V1L17.3191 7.6731Z" fill="#FAB718" />
<path d="M27.9999 9.80709L20.838 9.81377L17.3191 7.67309L13.5957 1L27.9999 9.80709Z" fill="#ED6F26" />
<path d="M17.3389 25.1583V20.8706L13.5957 18.6143L13.5978 31.8381L17.3389 25.1583Z" fill="#63B22F" />
<path d="M20.8295 23.033L6.73423 14.3876L3 7.7124L27.9847 23.0243L20.8295 23.033Z" fill="#1487C9" />
<path d="M13.5981 31.8382L17.3388 25.1584L20.8294 23.0332L27.9846 23.0244L13.5981 31.8382Z" fill="#017F36" />
<path d="M3.00439 25.1217L13.6263 18.6149L10.0553 16.4238L6.73451 18.4597L3.00439 25.1217Z" fill="#984995" />
</symbol><symbol viewBox="0 0 20 20" fill="none" id="search">
<path d="M9.16675 16.6666C13.3089 16.6666 16.6667 13.3088 16.6667 9.16663C16.6667 5.02449 13.3089 1.66663 9.16675 1.66663C5.02461 1.66663 1.66675 5.02449 1.66675 9.16663C1.66675 13.3088 5.02461 16.6666 9.16675 16.6666Z" stroke="#178CF8" stroke-width="2" stroke-linecap="round" stroke-linejoin="round" />
<path d="M18.3333 18.3333L15 15" stroke="#178CF8" stroke-width="2" stroke-linecap="round" stroke-linejoin="round" />
</symbol><symbol viewBox="0 0 18 18" fill="none" id="search-2">
<path d="M6.68571 0C8.45888 0 10.1594 0.704386 11.4132 1.9582C12.667 3.21202 13.3714 4.91255 13.3714 6.68571C13.3714 8.34171 12.7646 9.864 11.7669 11.0366L12.0446 11.3143H12.8571L18 16.4571L16.4571 18L11.3143 12.8571V12.0446L11.0366 11.7669C9.864 12.7646 8.34171 13.3714 6.68571 13.3714C4.91255 13.3714 3.21202 12.667 1.9582 11.4132C0.704386 10.1594 0 8.45888 0 6.68571C0 4.91255 0.704386 3.21202 1.9582 1.9582C3.21202 0.704386 4.91255 0 6.68571 0ZM6.68571 2.05714C4.11429 2.05714 2.05714 4.11429 2.05714 6.68571C2.05714 9.25714 4.11429 11.3143 6.68571 11.3143C9.25714 11.3143 11.3143 9.25714 11.3143 6.68571C11.3143 4.11429 9.25714 2.05714 6.68571 2.05714Z" fill="#828998" />
</symbol><symbol viewBox="0 0 16 16" fill="none" id="shield">
<path d="M2.5 7.16667V3.5C2.5 3.36739 2.55268 3.24021 2.64645 3.14645C2.74021 3.05268 2.86739 3 3 3H13C13.1326 3 13.2598 3.05268 13.3536 3.14645C13.4473 3.24021 13.5 3.36739 13.5 3.5V7.16667C13.5 12.4176 9.04338 14.1573 8.15351 14.4523C8.05403 14.4866 7.94597 14.4866 7.84649 14.4523C6.95663 14.1573 2.5 12.4176 2.5 7.16667Z" stroke="currentColor" stroke-width="1.5" stroke-linecap="round" stroke-linejoin="round" />
</symbol><symbol viewBox="0 0 22 22" fill="none" id="sticker">
<path d="M11.6562 17.9629H7.71875C6.67446 17.9629 5.67294 17.548 4.93452 16.8096C4.19609 16.0712 3.78125 15.0697 3.78125 14.0254V7.46289C3.78125 6.4186 4.19609 5.41708 4.93452 4.67866C5.67294 3.94023 6.67446 3.52539 7.71875 3.52539H14.2812C15.3255 3.52539 16.3271 3.94023 17.0655 4.67866C17.8039 5.41708 18.2187 6.4186 18.2187 7.46289V11.4004C17.5625 13.3691 13.625 17.3066 11.6562 17.9629Z" stroke="currentColor" stroke-width="1.575" stroke-linecap="round" stroke-linejoin="round" />
<path d="M11.6562 17.9629V15.3379C11.6562 14.2936 12.0711 13.2921 12.8095 12.5537C13.5479 11.8152 14.5495 11.4004 15.5937 11.4004H18.2187" stroke="currentColor" stroke-width="1.575" stroke-linecap="round" stroke-linejoin="round" />
</symbol><symbol viewBox="0 0 20 18" fill="none" id="telegram">
<path d="M13 7L9 11L15 17L19 1L1 8L5 10L7 16L10 12" stroke="currentColor" stroke-width="2" stroke-linecap="round" stroke-linejoin="round" />
</symbol><symbol viewBox="0 0 20 20" fill="none" id="ticket">
<path d="M7.5 4.375V15.625" stroke="currentColor" stroke-width="1.5" stroke-linecap="round" stroke-linejoin="round" />
<path d="M1.875 13.0617C1.87497 12.9178 1.92473 12.7782 2.01585 12.6667C2.10696 12.5552 2.23383 12.4786 2.37494 12.45C2.93958 12.3346 3.44704 12.0278 3.81149 11.5814C4.17594 11.1349 4.375 10.5763 4.375 10C4.375 9.42369 4.17594 8.86508 3.81149 8.41864C3.44704 7.9722 2.93958 7.66536 2.37494 7.55C2.23383 7.52135 2.10696 7.4448 2.01585 7.33331C1.92473 7.22182 1.87497 7.08225 1.875 6.93826V5C1.875 4.83424 1.94085 4.67527 2.05806 4.55806C2.17527 4.44085 2.33424 4.375 2.5 4.375H17.5C17.6658 4.375 17.8247 4.44085 17.9419 4.55806C18.0592 4.67527 18.125 4.83424 18.125 5V6.93826C18.125 7.08225 18.0753 7.22182 17.9842 7.33331C17.893 7.4448 17.7662 7.52136 17.6251 7.55C17.0604 7.66536 16.553 7.97221 16.1885 8.41865C15.8241 8.86508 15.625 9.4237 15.625 10C15.625 10.5763 15.8241 11.1349 16.1885 11.5814C16.553 12.0278 17.0604 12.3346 17.6251 12.45C17.7662 12.4787 17.893 12.5552 17.9841 12.6667C18.0753 12.7782 18.125 12.9178 18.125 13.0617V15C18.125 15.1658 18.0592 15.3247 17.9419 15.4419C17.8247 15.5592 17.6658 15.625 17.5 15.625H2.5C2.33424 15.625 2.17527 15.5592 2.05806 15.4419C1.94085 15.3247 1.875 15.1658 1.875 15V13.0617Z" stroke="currentColor" stroke-width="1.5" stroke-linecap="round" stroke-linejoin="round" />
</symbol><symbol viewBox="0 0 46 29" fill="none" id="vk">
<path d="M25.1762 28.6364C9.80142 28.6364 1.0319 17.887 0.666504 0H8.36794C8.62091 13.1286 14.2986 18.6896 18.7958 19.8362V0H26.0475V11.3227C30.4885 10.8354 35.1543 5.67568 36.7283 0H43.9801C43.3869 2.94357 42.2046 5.73065 40.5071 8.18693C38.8095 10.6432 36.6332 12.7158 34.1144 14.2752C36.926 15.7 39.4094 17.7167 41.4007 20.1922C43.392 22.6677 44.8459 25.5457 45.6665 28.6364H37.684C36.9474 25.9519 35.4503 23.5489 33.3803 21.7285C31.3102 19.9081 28.7594 18.7512 26.0475 18.4029V28.6364H25.1762Z" fill="white" />
</symbol><symbol viewBox="0 0 20 20" fill="none" id="wallet">
<path d="M3.125 5V15C3.125 15.3315 3.2567 15.6495 3.49112 15.8839C3.72554 16.1183 4.04348 16.25 4.375 16.25H16.875C17.0408 16.25 17.1997 16.1842 17.3169 16.0669C17.4342 15.9497 17.5 15.7908 17.5 15.625V6.875C17.5 6.70924 17.4342 6.55027 17.3169 6.43306C17.1997 6.31585 17.0408 6.25 16.875 6.25H4.375C4.04348 6.25 3.72554 6.1183 3.49112 5.88388C3.2567 5.64946 3.125 5.33152 3.125 5ZM3.125 5C3.125 4.66848 3.2567 4.35054 3.49112 4.11612C3.72554 3.8817 4.04348 3.75 4.375 3.75H15" stroke="currentColor" stroke-width="1.5" stroke-linecap="round" stroke-linejoin="round" />
<path d="M14.0625 12.1875C14.5803 12.1875 15 11.7678 15 11.25C15 10.7322 14.5803 10.3125 14.0625 10.3125C13.5447 10.3125 13.125 10.7322 13.125 11.25C13.125 11.7678 13.5447 12.1875 14.0625 12.1875Z" fill="currentColor" />
</symbol><symbol viewBox="0 0 20 20" fill="none" id="warning">
<path d="M10 8.125V11.25" stroke="#FFA500" stroke-width="1.5" stroke-linecap="round" stroke-linejoin="round" />
<path d="M8.91814 3.12381L2.04499 14.9982C1.93501 15.1882 1.87701 15.4038 1.87683 15.6234C1.87665 15.8429 1.93429 16.0586 2.04396 16.2488C2.15362 16.439 2.31144 16.5969 2.50153 16.7068C2.69163 16.8166 2.9073 16.8744 3.12684 16.8744H16.8731C17.0927 16.8744 17.3083 16.8166 17.4984 16.7068C17.6885 16.5969 17.8463 16.439 17.956 16.2488C18.0657 16.0586 18.1233 15.8429 18.1231 15.6234C18.1229 15.4038 18.0649 15.1882 17.955 14.9982L11.0818 3.12381C10.972 2.93411 10.8143 2.77661 10.6244 2.66712C10.4345 2.55763 10.2192 2.5 9.99998 2.5C9.78079 2.5 9.56546 2.55763 9.37557 2.66712C9.18569 2.77661 9.02794 2.93411 8.91814 3.12381V3.12381Z" stroke="#FFA500" stroke-width="1.5" stroke-linecap="round" stroke-linejoin="round" />
<path d="M10 15C10.5178 15 10.9375 14.5803 10.9375 14.0625C10.9375 13.5447 10.5178 13.125 10 13.125C9.48223 13.125 9.0625 13.5447 9.0625 14.0625C9.0625 14.5803 9.48223 15 10 15Z" fill="#FFA500" />
</symbol><symbol viewBox="0 0 20 20" fill="none" id="whatsapp">
<path d="M5.25301 16.494L5.97701 16.917C7.19795 17.6291 8.5866 18.0029 10 18C11.5823 18 13.129 17.5308 14.4446 16.6518C15.7602 15.7727 16.7855 14.5233 17.3911 13.0615C17.9966 11.5997 18.155 9.99113 17.8463 8.43928C17.5376 6.88743 16.7757 5.46197 15.6569 4.34315C14.538 3.22433 13.1126 2.4624 11.5607 2.15372C10.0089 1.84504 8.40036 2.00346 6.93855 2.60896C5.47674 3.21447 4.22731 4.23984 3.34826 5.55544C2.46921 6.87103 2.00001 8.41775 2.00001 10C2.00001 11.436 2.37701 12.813 3.08401 14.024L3.50601 14.748L2.85301 17.149L5.25301 16.494ZM0.00401338 20L1.35601 15.032C0.465151 13.5049 -0.00289063 11.768 1.34322e-05 10C1.34322e-05 4.477 4.47701 0 10 0C15.523 0 20 4.477 20 10C20 15.523 15.523 20 10 20C8.23279 20.0029 6.49667 19.5352 4.97001 18.645L0.00401338 20ZM6.39101 5.308C6.52501 5.298 6.66001 5.298 6.79401 5.304C6.84801 5.308 6.90201 5.314 6.95601 5.32C7.11501 5.338 7.29001 5.435 7.34901 5.569C7.64701 6.245 7.93701 6.926 8.21701 7.609C8.27901 7.761 8.24201 7.956 8.12401 8.146C8.04286 8.27448 7.95507 8.39865 7.86101 8.518C7.74801 8.663 7.50501 8.929 7.50501 8.929C7.50501 8.929 7.40601 9.047 7.44401 9.194C7.45801 9.25 7.50401 9.331 7.54601 9.399L7.60501 9.494C7.86101 9.921 8.20501 10.354 8.62501 10.762C8.74501 10.878 8.86201 10.997 8.98801 11.108C9.45601 11.521 9.98601 11.858 10.558 12.108L10.563 12.11C10.648 12.147 10.691 12.167 10.815 12.22C10.877 12.246 10.941 12.269 11.006 12.286C11.0732 12.3031 11.1439 12.2999 11.2093 12.2767C11.2746 12.2536 11.3316 12.2116 11.373 12.156C12.097 11.279 12.163 11.222 12.169 11.222V11.224C12.2193 11.1771 12.2791 11.1415 12.3443 11.1196C12.4095 11.0977 12.4786 11.09 12.547 11.097C12.607 11.101 12.668 11.112 12.724 11.137C13.255 11.38 14.124 11.759 14.124 11.759L14.706 12.02C14.804 12.067 14.893 12.178 14.896 12.285C14.9 12.352 14.906 12.46 14.883 12.658C14.851 12.917 14.773 13.228 14.695 13.391C14.6416 13.5022 14.5707 13.6042 14.485 13.693C14.3841 13.7989 14.2736 13.8954 14.155 13.981C14.114 14.0119 14.0723 14.0419 14.03 14.071C13.9056 14.1499 13.7778 14.2233 13.647 14.291C13.3895 14.4278 13.1052 14.5063 12.814 14.521C12.629 14.531 12.444 14.545 12.258 14.535C12.25 14.535 11.69 14.448 11.69 14.448C10.2683 14.074 8.9534 13.3735 7.85001 12.402C7.62401 12.203 7.41501 11.989 7.20101 11.776C6.31101 10.891 5.63901 9.936 5.23101 9.034C5.02218 8.59129 4.90938 8.1094 4.90001 7.62C4.89589 7.01285 5.09436 6.42167 5.46401 5.94C5.53701 5.846 5.60601 5.748 5.72501 5.635C5.85201 5.515 5.93201 5.451 6.01901 5.407C6.13469 5.34903 6.26088 5.31502 6.39001 5.307L6.39101 5.308Z" fill="currentColor" />
</symbol><symbol viewBox="0 0 20 20" fill="none" id="x-circle">
<path d="M10 17.5C14.1421 17.5 17.5 14.1421 17.5 10C17.5 5.85786 14.1421 2.5 10 2.5C5.85786 2.5 2.5 5.85786 2.5 10C2.5 14.1421 5.85786 17.5 10 17.5Z" stroke="currentColor" stroke-width="1.5" stroke-miterlimit="10" />
<path d="M12.5 7.5L7.5 12.5" stroke="currentColor" stroke-width="1.5" stroke-linecap="round" stroke-linejoin="round" />
<path d="M12.5 12.5L7.5 7.5" stroke="currentColor" stroke-width="1.5" stroke-linecap="round" stroke-linejoin="round" />
</symbol></defs></svg>