<svg width="32" height="32" viewBox="0 0 32 32" fill="none" xmlns="http://www.w3.org/2000/svg">
<path d="M3 7.7124L6.73449 14.3876V18.4592L3.00437 25.1212L3 7.7124Z" fill="#5B57A2"/>
<path d="M17.3389 11.9581L20.8382 9.81332L27.9998 9.80664L17.3389 16.3376V11.9581Z" fill="#D90751"/>
<path d="M17.3191 7.6731L17.3389 16.5108L13.5957 14.2108V1L17.3191 7.6731Z" fill="#FAB718"/>
<path d="M27.9999 9.80709L20.838 9.81377L17.3191 7.67309L13.5957 1L27.9999 9.80709Z" fill="#ED6F26"/>
<path d="M17.3389 25.1583V20.8706L13.5957 18.6143L13.5978 31.8381L17.3389 25.1583Z" fill="#63B22F"/>
<path d="M20.8295 23.033L6.73423 14.3876L3 7.7124L27.9847 23.0243L20.8295 23.033Z" fill="#1487C9"/>
<path d="M13.5981 31.8382L17.3388 25.1584L20.8294 23.0332L27.9846 23.0244L13.5981 31.8382Z" fill="#017F36"/>
<path d="M3.00439 25.1217L13.6263 18.6149L10.0553 16.4238L6.73451 18.4597L3.00439 25.1217Z" fill="#984995"/>
</svg>
