<svg width="127" height="20" viewBox="0 0 127 20" fill="none" xmlns="http://www.w3.org/2000/svg">
<path d="M38.6561 12.4083C38.6561 13.9267 37.1046 15.0261 34.9209 15.0261H29.8066V5.60205L34.7485 5.60205C36.8747 5.60205 38.3688 6.64917 38.3688 8.11514C38.3688 9.10991 37.7941 9.73818 36.9322 10.1047C37.8516 10.4188 38.6561 11.2565 38.6561 12.4083ZM32.0477 7.3298V9.37169H34.6911C35.4956 9.37169 36.0127 8.95284 36.0127 8.37692C36.0127 7.80101 35.4381 7.3298 34.6911 7.3298L32.0477 7.3298ZM34.9209 13.2984C35.7829 13.2984 36.415 12.8272 36.415 12.1466C36.415 11.4659 35.8403 10.9947 34.9209 10.9947H32.0477V13.2984H34.9209Z" fill="white"/>
<path d="M47.1034 14.9738L43.5407 11.2565H42.966V14.9738H40.6675V5.60205H42.966V9.21462H43.5407L46.9885 5.60205H49.6893L45.3795 10.1047L50.0916 14.9738L47.1034 14.9738Z" fill="white"/>
<path d="M50.0913 10.3142C50.0913 7.48695 52.3899 5.44507 55.6078 5.44507C58.8258 5.44507 61.1244 7.48695 61.1244 10.3142C61.1244 13.1414 58.8258 15.1833 55.6078 15.1833C52.3899 15.1833 50.0913 13.1414 50.0913 10.3142ZM58.7109 10.3142C58.7109 8.53407 57.4467 7.32988 55.6078 7.32988C53.769 7.32988 52.5048 8.53407 52.5048 10.3142C52.5048 12.0943 53.769 13.2985 55.6078 13.2985C57.4467 13.2985 58.7109 12.0943 58.7109 10.3142Z" fill="white"/>
<path d="M69.9167 5.60205H72.2152V14.9738L69.9167 14.9738V11.2041H65.3196V14.9738H63.021V5.60205H65.3196V9.31933H69.9167V5.60205Z" fill="white"/>
<path d="M77.157 14.9738V7.48687H73.5942V5.60205L82.9609 5.60205V7.48687H79.3981V14.9738H77.157Z" fill="white"/>
<path d="M92.8447 9.73826V14.9739H91.1783L90.7186 13.5079C90.2014 14.2932 89.1096 15.1833 87.4431 15.1833C85.3744 15.1833 83.8804 13.9267 83.8804 12.199C83.8804 10.4712 85.3744 9.26706 88.42 9.26706H90.6611C90.5462 8.06287 89.8566 7.22517 88.5924 7.22517C87.5581 7.22517 86.8685 7.74873 86.5237 8.32465L84.455 8.01051C84.9722 6.38748 86.7536 5.44507 88.7074 5.44507C91.2358 5.44507 92.8447 7.01575 92.8447 9.73826ZM90.6037 10.8901H88.4775C86.7536 10.8901 86.1789 11.4137 86.1789 12.0943C86.1789 12.8796 86.8685 13.4032 88.0178 13.4032C89.5118 13.4032 90.6037 12.4084 90.6037 10.8901Z" fill="white"/>
<path d="M101.694 14.9738L98.1315 11.2565H97.5569V14.9738H95.2583V5.60205H97.5569V9.21462H98.1315L101.579 5.60205H104.28L99.9703 10.1047L104.682 14.9738L101.694 14.9738Z" fill="white"/>
<path d="M108.82 14.9738V7.48687H105.257V5.60205L114.623 5.60205V7.48687H111.061V14.9738H108.82Z" fill="white"/>
<path d="M126.116 10.8901H117.841C118.071 12.3561 119.22 13.2985 120.944 13.2985C122.151 13.2985 123.07 12.8273 123.588 12.1466L125.714 12.4608C124.967 14.2409 122.956 15.1833 120.772 15.1833C117.669 15.1833 115.428 13.1414 115.428 10.3142C115.428 7.48695 117.669 5.44507 120.772 5.44507C123.875 5.44507 126.116 7.48695 126.116 10.2095C126.173 10.4712 126.116 10.6807 126.116 10.8901ZM118.014 9.26706H123.703C123.3 8.11522 122.266 7.27753 120.829 7.27753C119.45 7.22517 118.358 8.06287 118.014 9.26706Z" fill="white"/>
<path fill-rule="evenodd" clip-rule="evenodd" d="M2.04305 1.40589C0.5 2.81177 0.5 5.07452 0.5 9.6V10.4C0.5 14.9255 0.5 17.1882 2.04305 18.5941C3.58609 20 6.06959 20 11.0366 20H11.9146C16.8816 20 19.3651 20 20.9082 18.5941C22.4512 17.1882 22.4512 14.9255 22.4512 10.4V9.6C22.4512 5.07452 22.4512 2.81177 20.9082 1.40589C19.3651 0 16.8816 0 11.9146 0L11.0366 0C6.06959 0 3.58609 0 2.04305 1.40589ZM4.2043 6.08337C4.3232 11.2834 7.17684 14.4084 12.1799 14.4084H12.4635V11.4334C14.3019 11.6 15.692 12.825 16.25 14.4084H18.8476C18.1342 12.0417 16.2591 10.7334 15.0884 10.2334C16.2591 9.61669 17.9054 8.11671 18.2987 6.08337H15.9389C15.4267 7.73337 13.9086 9.23336 12.4635 9.37503L12.4635 6.08337L10.1036 6.08337L10.1036 11.85C8.64023 11.5167 6.79271 9.90004 6.71039 6.08337H4.2043Z" fill="white"/>
</svg>
